<?xml version="1.0" standalone="no"?>
<svg viewBox="0 0 200 200" xmlns="http://www.w3.org/2000/svg">
  <path fill="#9FD3ED" d="M45.6,-70.8C59.9,-61.7,72.9,-50.5,80.3,-36.1C87.6,-21.8,89.2,-4.4,87.1,12.7C84.9,29.8,79,46.6,68.4,60C57.9,73.4,42.7,83.4,26.3,87.1C9.9,90.8,-7.6,88.2,-23.8,82.7C-40,77.2,-54.9,68.9,-64,56.5C-73.2,44.2,-76.6,27.8,-77.7,11.9C-78.8,-4,-77.7,-19.5,-71.8,-32.9C-65.9,-46.4,-55.2,-57.9,-42.5,-67.7C-29.7,-77.6,-14.9,-85.8,0.4,-86.4C15.6,-87,31.3,-80,45.6,-70.8Z" transform="translate(100 100)" />
</svg>
